<?xml version="1.0" standalone="no"?>
<!DOCTYPE svg PUBLIC "-//W3C//DTD SVG 20010904//EN"
 "http://www.w3.org/TR/2001/REC-SVG-20010904/DTD/svg10.dtd">
<svg version="1.0" xmlns="http://www.w3.org/2000/svg"
 width="481.000000pt" height="519.000000pt" viewBox="0 0 481.000000 519.000000"
 preserveAspectRatio="xMidYMid meet">

<g transform="translate(0.000000,519.000000) scale(0.100000,-0.100000)"
fill="#000000" stroke="none">
<path d="M2255 4888 c-404 -21 -832 -188 -1167 -453 -83 -66 -281 -265 -339
-340 -192 -250 -318 -507 -395 -805 -69 -267 -72 -725 -5 -986 88 -343 238
-638 454 -889 340 -395 837 -660 1357 -725 109 -13 381 -13 490 0 458 57 903
271 1230 592 279 273 461 588 571 988 77 278 79 735 5 1022 -160 615 -564
1114 -1126 1390 -330 162 -671 227 -1075 206z m505 -301 c177 -38 303 -81 455
-156 189 -92 330 -195 491 -355 243 -244 397 -515 484 -856 47 -186 64 -455
40 -650 -42 -337 -190 -684 -408 -950 -62 -76 -196 -207 -278 -271 -338 -266
-804 -418 -1214 -395 -774 43 -1428 534 -1664 1250 -66 199 -87 318 -93 523
-8 254 17 420 99 661 148 439 489 827 911 1038 174 88 355 145 562 179 144 23
468 14 615 -18z"/>
<path d="M2511 3725 c-101 -22 -225 -90 -295 -161 -34 -34 -70 -73 -81 -88
l-20 -26 -45 16 c-32 11 -68 15 -127 12 -69 -4 -93 -10 -156 -41 -142 -70
-217 -184 -225 -344 l-4 -82 -35 -12 c-69 -22 -176 -105 -229 -176 -61 -81
-69 -96 -94 -172 -58 -182 -43 -363 44 -531 38 -73 136 -172 210 -214 123 -68
91 -66 904 -66 812 0 790 -1 921 65 152 77 291 252 335 422 44 167 41 314 -8
468 -47 148 -175 310 -298 378 -41 22 -58 38 -58 52 0 37 -37 143 -71 202 -49
87 -160 193 -248 237 -140 71 -280 91 -420 61z"/>
</g>
</svg>
